<svg width="16" height="16" fill="none" xmlns="http://www.w3.org/2000/svg"><path d="M7.17 10.514c.123 0 0 .107 0 .238v1.01c0 .131.123.238 0 .238H2.222C2.099 12 2 11.893 2 11.762V4.238C2 4.107 2.1 4 2.222 4H7.17c.123 0 0 .107 0 .238v1.01c0 .131.123.238 0 .238H3.934c-.122 0-.221.106-.221.238v1.26c0 .132.099.239.221.239H7.17c.123 0 0 .106 0 .238v.964c0 .131.123.238 0 .238H3.934c-.122 0-.221.106-.221.238v1.375c0 .132.099.238.221.238H7.17z" fill="#4D9DE0"/><path d="M13.072 7.51c-.143.146-.117.453.052.563.202.133.374.299.514.498.241.336.362.75.362 1.246 0 .701-.255 1.242-.766 1.623-.504.373-1.241.56-2.213.56h-3.85c-.123 0 0-.107 0-.238V4.238c0-.131-.123-.238 0-.238h3.638c.907 0 1.602.187 2.085.56.489.373.734.88.734 1.52a2.03 2.03 0 01-.556 1.43zM9.105 5.486c-.123 0-.222.106-.222.238v1.26c0 .132.1.239.222.239h1.49c.426 0 .749-.023.969-.183.22-.16.33-.396.33-.709 0-.312-.11-.544-.33-.697-.22-.16-.543-.148-.968-.148H9.105zm1.789 5.028c.454 0 .794.012 1.02-.148.235-.16.352-.408.352-.743 0-.663-.457-.96-1.372-.96h-1.79c-.122 0-.221.106-.221.238v1.375c0 .132.1.238.222.238h1.789z" fill="#4D9DE0"/></svg>